<?xml version="1.0" encoding="utf-8"?>
<!-- Generator: Adobe Illustrator 26.0.2, SVG Export Plug-In . SVG Version: 6.00 Build 0)  -->
<svg version="1.1" id="Layer_1" xmlns="http://www.w3.org/2000/svg" xmlns:xlink="http://www.w3.org/1999/xlink" x="0px" y="0px"
	 viewBox="0 0 140.7 31" style="enable-background:new 0 0 140.7 31;" xml:space="preserve">
<style type="text/css">
	.st0{fill:#0043AF;}
	.st1{fill:#D85700;}
	.st2{fill:#444444;}
</style>
<g>
	<path class="st0" d="M6.2,4.4h5.4c1.4,0,2.6,0.1,3.6,0.4c1,0.3,1.9,0.8,2.7,1.5c2.1,1.8,3.2,4.6,3.2,8.3c0,1.2-0.1,2.4-0.3,3.4
		c-0.2,1-0.5,1.9-1,2.7c-0.4,0.8-1,1.5-1.7,2.2c-0.5,0.5-1.2,0.9-1.8,1.2c-0.7,0.3-1.4,0.5-2.1,0.6c-0.8,0.1-1.6,0.2-2.5,0.2H6.3
		c-0.8,0-1.3-0.1-1.7-0.3c-0.4-0.2-0.6-0.5-0.7-1c-0.1-0.4-0.2-1-0.2-1.6v-15C3.7,6,3.9,5.4,4.3,5S5.3,4.4,6.2,4.4z M7.8,7.6v13.9
		H11c0.7,0,1.2,0,1.6-0.1s0.8-0.1,1.2-0.3c0.4-0.1,0.8-0.4,1.1-0.6c1.4-1.2,2.1-3.2,2.1-6.1c0-2-0.3-3.5-0.9-4.5
		c-0.6-1-1.4-1.6-2.3-1.9c-0.9-0.3-2-0.4-3.2-0.4H7.8z"/>
	<path class="st0" d="M30.4,16.1h-1.5v6.6c0,0.9-0.2,1.5-0.6,1.9c-0.4,0.4-0.9,0.6-1.5,0.6c-0.7,0-1.2-0.2-1.5-0.6
		c-0.4-0.4-0.5-1.1-0.5-1.9V6.9C24.8,6,25,5.4,25.4,5c0.4-0.4,1-0.6,1.9-0.6h6.7c0.9,0,1.7,0,2.4,0.1c0.7,0.1,1.3,0.2,1.8,0.5
		c0.6,0.3,1.2,0.7,1.7,1.2s0.9,1.1,1.1,1.8c0.3,0.7,0.4,1.4,0.4,2.1c0,1.5-0.4,2.7-1.3,3.7c-0.9,0.9-2.2,1.6-3.9,1.9
		c0.7,0.4,1.4,1,2.1,1.7c0.7,0.8,1.3,1.6,1.8,2.4c0.5,0.9,0.9,1.6,1.2,2.3c0.3,0.7,0.4,1.2,0.4,1.4c0,0.3-0.1,0.5-0.3,0.8
		s-0.4,0.5-0.7,0.6c-0.3,0.2-0.6,0.2-1,0.2c-0.5,0-0.9-0.1-1.2-0.3c-0.3-0.2-0.6-0.5-0.8-0.8c-0.2-0.3-0.5-0.8-0.9-1.5l-1.7-2.8
		c-0.6-1-1.1-1.8-1.6-2.3c-0.5-0.5-0.9-0.9-1.4-1.1C31.7,16.2,31.1,16.1,30.4,16.1z M32.8,7.5h-3.8v5.6h3.7c1,0,1.8-0.1,2.5-0.3
		s1.2-0.5,1.6-0.9c0.4-0.4,0.5-1,0.5-1.7c0-0.6-0.1-1.1-0.4-1.5s-0.7-0.8-1.2-1C35.2,7.6,34.2,7.5,32.8,7.5z"/>
	<path class="st0" d="M48.9,22.7v-6.5l-5-7.8c-0.4-0.7-0.7-1.2-0.9-1.6c-0.2-0.4-0.3-0.7-0.3-1c0-0.5,0.2-0.9,0.6-1.2
		C43.6,4.2,44.1,4,44.6,4c0.6,0,1,0.2,1.3,0.5s0.7,1,1.3,1.9l3.8,6.2l3.9-6.2c0.2-0.4,0.4-0.7,0.6-1c0.2-0.3,0.3-0.5,0.5-0.7
		c0.2-0.2,0.4-0.4,0.6-0.5C56.9,4.1,57.2,4,57.5,4c0.5,0,1,0.2,1.3,0.5c0.3,0.3,0.5,0.7,0.5,1.2c0,0.4-0.1,0.7-0.3,1.1
		c-0.2,0.4-0.5,0.9-0.9,1.5L53,16.2v6.5c0,0.8-0.2,1.5-0.6,1.9c-0.4,0.4-0.9,0.6-1.5,0.6c-0.6,0-1.1-0.2-1.5-0.6
		C49.1,24.2,48.9,23.5,48.9,22.7z"/>
	<path class="st1" d="M61.2,25.2c-0.6,0-1.1-0.2-1.5-0.6c-0.4-0.4-0.6-0.9-0.6-1.6c0-0.6,0.2-1.1,0.6-1.5c0.4-0.4,0.9-0.6,1.5-0.6
		s1.1,0.2,1.5,0.6c0.4,0.4,0.6,0.9,0.6,1.5c0,0.7-0.2,1.2-0.6,1.6C62.3,25,61.8,25.2,61.2,25.2z"/>
	<path class="st2" d="M71.1,11.8v0.5c0.7-0.9,1.4-1.5,2.2-1.9s1.7-0.6,2.7-0.6c1,0,1.9,0.2,2.7,0.7c0.8,0.4,1.4,1.1,1.8,1.9
		c0.3,0.5,0.4,1,0.5,1.5s0.1,1.2,0.1,2.1v7.1c0,0.8-0.2,1.3-0.5,1.7c-0.3,0.4-0.8,0.6-1.4,0.6c-0.6,0-1-0.2-1.4-0.6s-0.5-1-0.5-1.7
		v-6.4c0-1.3-0.2-2.2-0.5-2.9c-0.3-0.7-1-1-2.1-1c-0.7,0-1.3,0.2-1.9,0.6c-0.6,0.4-1,1-1.2,1.7c-0.2,0.6-0.3,1.6-0.3,3.2v4.8
		c0,0.8-0.2,1.4-0.5,1.7c-0.4,0.4-0.8,0.6-1.4,0.6c-0.5,0-1-0.2-1.4-0.6s-0.5-1-0.5-1.7v-11c0-0.7,0.2-1.3,0.5-1.6
		c0.3-0.4,0.7-0.5,1.3-0.5c0.3,0,0.6,0.1,0.9,0.2c0.3,0.2,0.5,0.4,0.6,0.7C71,11,71.1,11.3,71.1,11.8z"/>
	<path class="st2" d="M95.6,18.4h-7.5c0,0.9,0.2,1.6,0.5,2.3s0.8,1.2,1.4,1.5s1.2,0.5,1.9,0.5c0.5,0,0.9-0.1,1.2-0.2
		c0.4-0.1,0.7-0.3,1.1-0.5c0.4-0.2,0.7-0.5,1-0.7s0.7-0.6,1.2-1.1c0.2-0.2,0.5-0.3,0.8-0.3c0.4,0,0.7,0.1,1,0.3
		c0.2,0.2,0.4,0.5,0.4,0.9c0,0.3-0.1,0.7-0.4,1.2s-0.7,0.9-1.2,1.3s-1.2,0.8-2.1,1.1c-0.8,0.3-1.8,0.4-2.8,0.4
		c-2.4,0-4.4-0.7-5.7-2.1c-1.4-1.4-2-3.3-2-5.7c0-1.1,0.2-2.2,0.5-3.1c0.3-1,0.8-1.8,1.5-2.5c0.6-0.7,1.4-1.2,2.4-1.6
		c0.9-0.4,2-0.6,3.1-0.6c1.5,0,2.8,0.3,3.8,0.9c1.1,0.6,1.9,1.4,2.4,2.4c0.5,1,0.8,2,0.8,3c0,1-0.3,1.6-0.8,1.9
		C97.4,18.2,96.6,18.4,95.6,18.4z M88.1,16.2H95c-0.1-1.3-0.4-2.3-1.1-2.9c-0.6-0.6-1.4-1-2.4-1c-0.9,0-1.7,0.3-2.3,1
		S88.3,14.9,88.1,16.2z"/>
	<path class="st2" d="M103.9,12.1l2.5,8.5l2.3-7.9c0.2-0.8,0.4-1.4,0.5-1.7s0.3-0.6,0.7-0.9c0.3-0.3,0.8-0.4,1.3-0.4
		c0.6,0,1,0.1,1.3,0.4s0.5,0.6,0.7,0.9c0.1,0.3,0.3,0.9,0.5,1.7l2.3,7.9l2.5-8.5c0.2-0.6,0.3-1.1,0.4-1.3c0.1-0.3,0.3-0.5,0.5-0.7
		c0.2-0.2,0.6-0.3,1-0.3c0.5,0,0.9,0.2,1.2,0.5c0.3,0.3,0.5,0.7,0.5,1.1c0,0.4-0.1,1-0.4,1.8l-3.1,9.1c-0.3,0.8-0.5,1.3-0.6,1.7
		c-0.1,0.3-0.4,0.7-0.7,0.9c-0.3,0.3-0.8,0.4-1.3,0.4c-0.6,0-1-0.1-1.4-0.4c-0.3-0.3-0.6-0.6-0.7-1.1s-0.3-1-0.5-1.6l-2.2-7.4
		l-2.1,7.4c-0.3,1-0.6,1.8-0.9,2.3c-0.3,0.5-0.9,0.8-1.7,0.8c-0.4,0-0.8-0.1-1.1-0.2c-0.3-0.2-0.5-0.4-0.7-0.7
		c-0.2-0.3-0.4-0.7-0.5-1.1c-0.1-0.4-0.3-0.7-0.3-1l-3.1-9.1c-0.3-0.9-0.5-1.4-0.5-1.8c0-0.4,0.2-0.8,0.5-1.1
		c0.3-0.3,0.7-0.5,1.2-0.5c0.6,0,1.1,0.2,1.3,0.5C103.5,10.6,103.7,11.2,103.9,12.1z"/>
	<path class="st2" d="M137.1,20.2c0,1.1-0.3,2-0.8,2.7c-0.5,0.8-1.3,1.3-2.3,1.7c-1,0.4-2.2,0.6-3.7,0.6c-1.4,0-2.5-0.2-3.5-0.6
		c-1-0.4-1.7-0.9-2.2-1.6s-0.7-1.3-0.7-1.9c0-0.4,0.1-0.8,0.4-1.1c0.3-0.3,0.7-0.4,1.1-0.4c0.4,0,0.7,0.1,0.9,0.3
		c0.2,0.2,0.4,0.5,0.6,0.8c0.4,0.7,0.9,1.2,1.4,1.5c0.5,0.3,1.3,0.5,2.2,0.5c0.8,0,1.4-0.2,1.9-0.5s0.7-0.7,0.7-1.2
		c0-0.7-0.3-1.2-0.8-1.5s-1.3-0.6-2.5-0.9c-1.3-0.3-2.4-0.7-3.2-1s-1.5-0.8-2-1.4c-0.5-0.6-0.7-1.3-0.7-2.2c0-0.8,0.2-1.5,0.7-2.2
		c0.5-0.7,1.1-1.2,2-1.6c0.9-0.4,2-0.6,3.2-0.6c1,0,1.9,0.1,2.7,0.3c0.8,0.2,1.4,0.5,2,0.8c0.5,0.3,0.9,0.7,1.2,1.1
		c0.3,0.4,0.4,0.8,0.4,1.2c0,0.4-0.1,0.8-0.4,1.1c-0.3,0.3-0.7,0.4-1.3,0.4c-0.4,0-0.7-0.1-1-0.3s-0.6-0.6-0.9-1
		c-0.3-0.4-0.6-0.7-1-0.9c-0.4-0.2-0.9-0.3-1.6-0.3c-0.7,0-1.3,0.1-1.7,0.4s-0.7,0.7-0.7,1.1c0,0.4,0.2,0.7,0.5,1s0.8,0.5,1.4,0.6
		c0.6,0.2,1.4,0.4,2.3,0.6c1.2,0.3,2.1,0.6,2.9,1c0.8,0.4,1.3,0.9,1.7,1.4S137.1,19.5,137.1,20.2z"/>
</g>
</svg>
